PathFileType	4	(X/Y/Z)	./resultDataOpenSim/trcMotMarkerGrf/sub10/qtm-04-04.trc
DataRate	CameraRate	NumFrames	NumMarkers	Units	OrigDataRate	OrigDataStartFrame	OrigNumFrames
250.000000	250.000000	9	24	m	250.000000	391	520
Frame#	Time	L.Toe.Tip			R.Toe.Tip			L.Ankle.Lat			R.Ankle.Lat			L.Ankle.Med			R.Ankle.Med			L.Heel			R.Heel			L.Knee.Lat			R.Knee.Lat			L.Knee.Med			R.Knee.Med			L.Thigh.Upper			R.Thigh.Upper			L.ASIS			R.ASIS			V.Sacral			L.Acromium			R.Acromium			C7			L.Elbow			R.Elbow			L.Wrist.Lat			R.Wrist.Lat
		X1	Y1	Z1	X2	Y2	Z2	X3	Y3	Z3	X4	Y4	Z4	X5	Y5	Z5	X6	Y6	Z6	X7	Y7	Z7	X8	Y8	Z8	X9	Y9	Z9	X10	Y10	Z10	X11	Y11	Z11	X12	Y12	Z12	X13	Y13	Z13	X14	Y14	Z14	X15	Y15	Z15	X16	Y16	Z16	X17	Y17	Z17	X18	Y18	Z18	X19	Y19	Z19	X20	Y20	Z20	X21	Y21	Z21	X22	Y22	Z22	X23	Y23	Z23	X24	Y24	Z24

391	1.56	0.66231986	0.091157023	-0.12026141	0.89797571	0.03883335	0.042351631	0.61182882	0.21952077	-0.13432725	0.75695719	0.053863785	0.093902822	0.64392063	0.22124514	-0.055894509	0.7734544	0.082324936	0.009924268	0.55580452	0.24785881	-0.079066247	0.7042782	0.030815068	0.050892559	0.88913993	0.47148738	-0.1737963	0.83078466	0.45108017	0.12331496	0.91690044	0.43848188	-0.056054848	0.82668448	0.45719532	-0.005147546	0.77109117	0.82992959	-0.1934357	0.79863925	0.86768393	0.1852774	0.83388303	0.94298031	-0.13482763	0.86223628	0.95587117	0.10730469	0.64932775	0.96892142	0.0046509482	0.80215923	1.4307143	-0.15350523	0.81031358	1.4228019	0.16535004	0.72358672	1.4531578	0.005045426	0.68103464	1.1135926	-0.22367279	0.70313207	1.0928364	0.27357359	0.81876541	0.89338491	-0.26005332	0.91691799	0.98330647	0.35551012
392	1.564	0.67812622	0.090529683	-0.12123398	0.8979933	0.03882096	0.042385601	0.62475359	0.217512	-0.13459899	0.75691365	0.053959424	0.093805312	0.65783214	0.21948525	-0.05646825	0.77354866	0.082429538	0.009863681	0.56813146	0.24439649	-0.079047132	0.7040467	0.030951326	0.050794224	0.89840986	0.47395402	-0.17400971	0.83107066	0.45118039	0.12376683	0.92676528	0.44119556	-0.056520637	0.82740246	0.45719865	-0.004868198	0.77796021	0.83149995	-0.1941577	0.80254016	0.86824108	0.18518139	0.83958861	0.944333	-0.13445159	0.86668338	0.95653751	0.10759036	0.65399704	0.96970933	0.0037148495	0.8063723	1.4315994	-0.15367278	0.81437787	1.4239713	0.16518474	0.72800129	1.4540245	0.0048410406	0.68549595	1.1149642	-0.22513934	0.71007321	1.09328	0.2749423	0.81853161	0.89387013	-0.26251112	0.92644797	0.98716812	0.35493759
393	1.568	0.69406461	0.089788062	-0.12210752	0.8980237	0.038810651	0.042414094	0.63771045	0.21532896	-0.13485539	0.75688479	0.054060529	0.09369794	0.67152122	0.21762804	-0.056970125	0.77362048	0.082531935	0.0097994914	0.58058851	0.24071034	-0.079130432	0.70383905	0.031090699	0.050684899	0.90769992	0.47640925	-0.17425497	0.831383	0.45127224	0.12420719	0.93641114	0.44381759	-0.057021815	0.8281312	0.45720108	-0.0046159624	0.78476837	0.83300369	-0.1948698	0.8063991	0.86871328	0.18507244	0.84518613	0.94565135	-0.13412984	0.871133	0.95712293	0.10784194	0.65881603	0.97045376	0.0027060969	0.81058677	1.4324173	-0.15385066	0.81841626	1.4250612	0.16502272	0.73240189	1.4548138	0.0046283044	0.68886352	1.1164726	-0.22609893	0.71709411	1.0936505	0.27620093	0.81821266	0.89436616	-0.26489887	0.93592377	0.99095482	0.35435979
394	1.572	0.71023887	0.088944455	-0.1229486	0.8980666	0.038797705	0.042433663	0.65073283	0.21296792	-0.13511177	0.75687722	0.054162343	0.093580999	0.68494786	0.21567365	-0.057380888	0.77370701	0.082639173	0.0097189078	0.59314666	0.23681964	-0.079298172	0.70379415	0.031246029	0.050516032	0.91691289	0.47879297	-0.17451568	0.83178745	0.45135788	0.12462249	0.94593243	0.44632737	-0.057590131	0.82894765	0.4572008	-0.0043507089	0.79161961	0.83444282	-0.19555946	0.8101927	0.86909293	0.18494823	0.85096805	0.94690519	-0.133908	0.87558002	0.95762567	0.10806346	0.66373175	0.97112301	0.0015576622	0.81480316	1.4331694	-0.15403283	0.82243405	1.4260764	0.16486922	0.73677928	1.4555225	0.0043925653	0.69149536	1.1180421	-0.22672934	0.72418745	1.0939577	0.27737106	0.81780446	0.89487594	-0.26719154	0.94537801	0.99467582	0.35377649
395	1.576	0.72661056	0.08802892	-0.12376013	0.89811683	0.038774266	0.042438475	0.66385876	0.21042604	-0.13538544	0.75693262	0.054248949	0.093430964	0.69825734	0.21360661	-0.057742452	0.77386812	0.082737904	0.0095990484	0.60575861	0.23274956	-0.079506983	0.70396853	0.031427101	0.050270694	0.92594098	0.48102552	-0.1747717	0.83232178	0.45143402	0.12499834	0.95548556	0.44871695	-0.058237079	0.82987313	0.45720379	-0.0040666217	0.79854697	0.83581918	-0.19620809	0.81390026	0.86936716	0.18481038	0.8569687	0.94807615	-0.13375897	0.88001816	0.95805067	0.10826368	0.66872917	0.97167773	0.00024391624	0.81902033	1.4338476	-0.1542113	0.82643176	1.4270225	0.16471872	0.74114355	1.4561537	0.0041340242	0.69375468	1.1196012	-0.22719695	0.73131417	1.0942104	0.27855547	0.81736352	0.89539602	-0.26940326	0.9548263	0.9983378	0.35319236
396	1.58	0.74309374	0.087067615	-0.12451202	0.89816921	0.038741212	0.042421638	0.67710114	0.20771372	-0.13567642	0.75711608	0.054297458	0.093206628	0.71156284	0.21141755	-0.058088698	0.77409816	0.082814633	0.0094464831	0.61843846	0.22850615	-0.079747756	0.7042797	0.031623386	0.049987329	0.93475566	0.48308521	-0.17502124	0.83297598	0.45149887	0.12533608	0.96513859	0.45100114	-0.058922677	0.83087591	0.457226	-0.0037779688	0.80551941	0.83713381	-0.19681658	0.81747222	0.86950432	0.18466317	0.86297757	0.94916099	-0.13361479	0.88444646	0.9584056	0.10844908	0.67382175	0.97208422	-0.0012161415	0.82324152	1.4344405	-0.15438185	0.83040983	1.4278976	0.1645638	0.74551163	1.4567121	0.0038750374	0.69588716	1.1211082	-0.22760908	0.7384123	1.0944145	0.27992354	0.81693781	0.89591933	-0.27155477	0.96424213	1.0019363	0.35261546
397	1.584	0.7596705	0.086075695	-0.12520005	0.89822295	0.038712965	0.042384138	0.6904552	0.20484614	-0.13597777	0.75741829	0.05431305	0.092910634	0.7248348	0.20911616	-0.058403725	0.77430461	0.082885971	0.0092958558	0.63126395	0.22408034	-0.08004598	0.70457597	0.031814921	0.049726832	0.94339042	0.4849974	-0.17527084	0.83369831	0.45154982	0.1256514	0.97475117	0.45321102	-0.059560669	0.83192043	0.4572835	-0.0034920148	0.81251475	0.83838571	-0.19739749	0.82090626	0.86950946	0.18450822	0.86883467	0.95015917	-0.13344038	0.88887767	0.95869381	0.10861539	0.67899463	0.97234212	-0.002764158	0.82747225	1.4349457	-0.15454987	0.83437443	1.4286972	0.16440427	0.74988072	1.4571973	0.0036494629	0.69799737	1.1225484	-0.2280093	0.74545499	1.0945716	0.28156686	0.81654096	0.89643728	-0.27365854	0.97358535	1.005459	0.3520449
398	1.588	0.77635003	0.085060075	-0.12584009	0.89828004	0.038702762	0.042340402	0.70392789	0.20182826	-0.13629581	0.75766003	0.054362833	0.092647144	0.73793051	0.20672986	-0.058637733	0.77437999	0.082974593	0.0091714502	0.64427473	0.21947614	-0.080407014	0.70475043	0.031992072	0.049519299	0.951911	0.48677961	-0.17551625	0.83443255	0.45158028	0.12595604	0.98413035	0.45535806	-0.060090755	0.83301317	0.45735239	-0.0032117003	0.81948619	0.83956594	-0.1979499	0.82434467	0.86947231	0.18434237	0.87457969	0.95106837	-0.1332534	0.89334614	0.95891524	0.10874703	0.68419002	0.97249823	-0.0043158424	0.83171532	1.4353701	-0.15472597	0.83833207	1.4294213	0.16424405	0.75422796	1.4576061	0.003494406	0.70009983	1.123922	-0.22840058	0.75251034	1.0946719	0.28333931	0.81617339	0.89694162	-0.27572117	0.98284551	1.0088921	0.35146115
399	1.592	0.7931086	0.084011256	-0.12644802	0.89833957	0.038706131	0.042306949	0.717536	0.19865478	-0.13664367	0.75763308	0.054519905	0.092536223	0.7507897	0.20427273	-0.058778332	0.77431245	0.083075875	0.0090664944	0.65743715	0.21471353	-0.080801466	0.70479714	0.032154739	0.049343084	0.96043702	0.48842347	-0.17574551	0.83516175	0.45158492	0.12624375	0.99324263	0.45741835	-0.060526565	0.83421534	0.45734196	-0.0029418804	0.8263506	0.8406576	-0.19846848	0.82798982	0.86949363	0.18415848	0.88032893	0.95188894	-0.13308681	0.89789287	0.95907026	0.10882869	0.68934201	0.97261662	-0.0057907478	0.83596865	1.4357202	-0.15491228	0.84228258	1.4300709	0.1640862	0.75854287	1.4579402	0.0034265897	0.70219193	1.1252331	-0.22877989	0.75968721	1.094697	0.28495255	0.81584207	0.89742624	-0.27774173	0.99204003	1.0122265	0.35083897
